<svg width="32" height="32" viewBox="0 0 32 32" fill="none" xmlns="http://www.w3.org/2000/svg">
<path d="M17.7491 0.334934C17.8678 0.244634 18.0678 0.13176 18.1866 0.0790849C18.3116 0.0188852 18.5679 -0.0112147 18.7804 0.00383524C18.9992 0.0188852 19.2742 0.10166 19.4367 0.199484C19.6429 0.319884 21.2993 2.26885 25.6996 7.56643C30.5937 13.4585 31.7125 14.8431 31.8375 15.1666C31.9562 15.4526 32 15.6783 32 16.0094C32 16.3405 31.9562 16.5663 31.8375 16.8598C31.7125 17.1758 30.5999 18.5604 25.7308 24.4224C21.3118 29.75 19.6992 31.6463 19.4679 31.7968C19.2117 31.9624 19.0742 31.9925 18.6866 32C18.3179 32 18.1616 31.9624 17.9366 31.8194C17.7803 31.7216 17.3365 31.2626 16.949 30.8035C16.4427 30.2091 16.1927 29.8479 16.0802 29.5544C15.9552 29.2459 15.9114 29.0201 15.9177 28.689C15.9177 28.3955 15.9615 28.1096 16.049 27.8613C16.1677 27.5452 16.774 26.7777 23.1869 19.0571L12.2362 19.0194L12.1006 19.019C1.45273 18.9818 1.27197 18.9812 1.02923 18.8313C0.891721 18.7485 0.666706 18.5454 0.535447 18.3798C0.397938 18.2143 0.229177 17.9283 0.160423 17.7402C0.0479156 17.4542 0.0291643 17.2134 0.00416271 16.1599C-0.0083381 15.1817 0.00416272 14.828 0.085418 14.4894C0.160423 14.1658 0.26668 13.9551 0.485444 13.6692C0.685457 13.4133 0.88547 13.2478 1.10423 13.1424C1.42926 12.9995 1.69177 12.9995 23.1557 12.9995L19.6742 8.80805C16.799 5.33904 16.1677 4.54139 16.0552 4.23287C15.9615 3.96949 15.9177 3.70612 15.9177 3.3675C15.9177 3.02135 15.9615 2.7655 16.0552 2.50212C16.149 2.24628 16.4052 1.8625 16.8615 1.31318C17.2303 0.861682 17.6303 0.425233 17.7491 0.334934Z" fill="white"/>
</svg>
